<svg width="37px" height="31px" viewBox="0 0 37 31" version="1.1" xmlns="http://www.w3.org/2000/svg" xmlns:xlink="http://www.w3.org/1999/xlink">
    <g id="Page-2" stroke="none" stroke-width="1" fill="none" fill-rule="evenodd">
        <g id="Desktop-HD-Copy" transform="translate(-696.000000, -188.000000)" fill="#FF5F00" fill-rule="nonzero">
            <g id="Group-30" transform="translate(652.000000, 142.000000)">
                <g id="Group-26" transform="translate(20.000000, 16.000000)">
                    <g id="Group-24">
                        <g id="Money" transform="translate(24.331652, 30.672816)">
                            <path d="M34.2857143,5.85714286 L34.2857143,27.5714286 L6.85714286,27.5714286 L6.85714286,29.8571429 L34.2857143,29.8571429 C35.5480794,29.8571429 36.5714286,28.8337937 36.5714286,27.5714286 L36.5714286,5.85714286 L34.2857143,5.85714286 Z" id="Shape"></path>
                            <path d="M32,23 L32,2.42857143 C32,1.16620629 30.9766509,0.142857143 29.7142857,0.142857143 L2.28571429,0.142857143 C1.02334914,0.142857143 0,1.16620629 0,2.42857143 L0,23 C0,24.2623651 1.02334914,25.2857143 2.28571429,25.2857143 L29.7142857,25.2857143 C30.9766509,25.2857143 32,24.2623651 32,23 Z M2.28571429,2.42857143 L29.7142857,2.42857143 L29.7142857,23 L2.28571429,23 L2.28571429,2.42857143 Z" id="Shape"></path>
                            <path d="M16,18.8171429 C12.6294851,18.8171429 9.89714286,16.0848006 9.89714286,12.7142857 C9.89714286,9.34377078 12.6294851,6.61142857 16,6.61142857 C19.3705149,6.61142857 22.1028571,9.34377078 22.1028571,12.7142857 C22.0903233,16.0795953 19.3653096,18.804609 16,18.8171429 Z M16,8.89714286 C13.8918502,8.89714286 12.1828571,10.6061359 12.1828571,12.7142857 C12.1828571,14.8224355 13.8918502,16.5314286 16,16.5314286 C18.1081498,16.5314286 19.8171429,14.8224355 19.8171429,12.7142857 C19.8171429,11.7019165 19.4149807,10.7310113 18.6991276,10.0151581 C17.9832745,9.29930497 17.0123692,8.89714286 16,8.89714286 Z" id="Shape"></path>
                        </g>
                    </g>
                </g>
            </g>
        </g>
    </g>
</svg>