<svg width="72" height="61" viewBox="0 0 72 61" fill="none" xmlns="http://www.w3.org/2000/svg">
<path fill-rule="evenodd" clip-rule="evenodd" d="M70.35 16.0931C69.375 15.5681 68.175 15.6431 67.2 16.3181L54 25.7681V24.7931C54 18.1931 48.6 12.7931 42 12.7931H39V9.79312C39 4.84312 34.95 0.793121 30 0.793121H15C13.35 0.793121 12 2.14312 12 3.79312C12 5.44312 13.35 6.79312 15 6.79312H30C31.65 6.79312 33 8.14312 33 9.79312V12.7931H12C5.4 12.7931 0 18.1931 0 24.7931V48.7931C0 55.3931 5.4 60.7931 12 60.7931H42C48.6 60.7931 54 55.3931 54 48.7931V47.8181L67.275 57.2681C68.625 58.2431 70.5 57.9431 71.475 56.5931C71.85 56.0681 72 55.4681 72 54.8681V18.7931C72 17.6681 71.4 16.6181 70.35 16.0931ZM48 48.7931C48 52.0931 45.3 54.7931 42 54.7931H12C8.7 54.7931 6 52.0931 6 48.7931V24.7931C6 21.4931 8.7 18.7931 12 18.7931H42C45.3 18.7931 48 21.4931 48 24.7931V48.7931ZM54 40.4681L66 48.9431V24.6431L54 33.1931V40.4681Z" fill="#FFFFFF"/>
<path fill-rule="evenodd" clip-rule="evenodd" d="M36 36.7931H18C16.35 36.7931 15 38.1431 15 39.7931C15 41.4431 16.35 42.7931 18 42.7931H36C37.65 42.7931 39 41.4431 39 39.7931C39 38.1431 37.65 36.7931 36 36.7931Z" fill="#FFFFFF"/>
</svg>
